<svg xmlns="http://www.w3.org/2000/svg" viewBox="0 0 640 320">
  <defs>
    <linearGradient id="g" x1="0" y1="0" x2="1" y2="0">
      <stop offset="0%" stop-color="#1d4ed8" stop-opacity=".38"/>
      <stop offset="100%" stop-color="#1d4ed8" stop-opacity=".22"/>
    </linearGradient>
  </defs>
  <rect width="640" height="320" fill="none"/>
  <g fill="url(#g)">
    <path d="M52 132l24-12 34 3 18-16 36 2 16 15 14 1 18 19-17 21-31 10-35-7-16-16-21-2-27-18z"/>
    <path d="M232 105l27-15 40-2 44 8 30 22 1 20-27 13-20 1-17-11-32 1-24 15-23-12-8-24 9-16z"/>
    <path d="M372 136l23-16 33-3 28 8 22 20 33 2 29 18-2 24-34 17-50 2-30-16-38-1-21-22 7-33z"/>
    <path d="M301 187l16-4 21 7 7 20-11 19-20 7-19-6-10-18 3-17z"/>
    <path d="M499 227l34-11 28 7 18 23-11 22-34 11-31-9-15-20z"/>
  </g>
</svg>
