<svg xmlns="http://www.w3.org/2000/svg" viewBox="0 0 1400 760" role="img" aria-label="Busan Gwangandaegyo bridge and skyline illustration">
  <defs>
    <linearGradient id="sky" x1="0" y1="0" x2="0" y2="1">
      <stop offset="0" stop-color="#b7cde0"/>
      <stop offset="0.58" stop-color="#9fb9cc"/>
      <stop offset="1" stop-color="#6f98ad"/>
    </linearGradient>
    <linearGradient id="sea" x1="0" y1="0" x2="0" y2="1">
      <stop offset="0" stop-color="#4f8fa4"/>
      <stop offset="1" stop-color="#1e6679"/>
    </linearGradient>
    <linearGradient id="glass" x1="0" y1="0" x2="1" y2="1">
      <stop offset="0" stop-color="#d8e7f0" stop-opacity="0.82"/>
      <stop offset="1" stop-color="#5b7f98" stop-opacity="0.76"/>
    </linearGradient>
    <filter id="soft" x="-10%" y="-10%" width="120%" height="120%">
      <feGaussianBlur stdDeviation="1.1"/>
    </filter>
  </defs>
  <rect width="1400" height="760" fill="url(#sky)"/>
  <path d="M0 500 C210 470 310 485 460 458 C650 425 760 450 940 420 C1110 392 1230 400 1400 372 L1400 760 L0 760Z" fill="#496778" opacity="0.34"/>
  <g opacity="0.58">
    <rect x="35" y="210" width="62" height="290" fill="url(#glass)"/>
    <path d="M120 480V150C166 184 184 251 184 480Z" fill="url(#glass)"/>
    <rect x="200" y="235" width="82" height="245" fill="url(#glass)"/>
    <rect x="302" y="190" width="54" height="290" fill="url(#glass)"/>
    <rect x="370" y="170" width="78" height="310" fill="url(#glass)"/>
    <rect x="462" y="250" width="54" height="230" fill="url(#glass)"/>
    <rect x="540" y="275" width="72" height="205" fill="url(#glass)"/>
    <rect x="645" y="255" width="50" height="225" fill="url(#glass)"/>
    <rect x="720" y="232" width="88" height="248" fill="url(#glass)"/>
    <rect x="845" y="278" width="56" height="202" fill="url(#glass)"/>
    <rect x="920" y="238" width="80" height="242" fill="url(#glass)"/>
    <rect x="1030" y="220" width="70" height="260" fill="url(#glass)"/>
    <rect x="1130" y="255" width="62" height="225" fill="url(#glass)"/>
    <rect x="1220" y="210" width="86" height="270" fill="url(#glass)"/>
  </g>
  <g opacity="0.18" stroke="#ffffff" stroke-width="2">
    <path d="M0 80 L1400 610"/>
    <path d="M1400 70 L0 620"/>
  </g>
  <rect y="512" width="1400" height="248" fill="url(#sea)"/>
  <g fill="none" stroke-linecap="round" stroke-linejoin="round">
    <path d="M-40 392 C270 180 505 182 720 318 C915 442 1130 418 1440 250" stroke="#eaf4fb" stroke-width="12"/>
    <path d="M-40 392 C270 180 505 182 720 318 C915 442 1130 418 1440 250" stroke="#67879a" stroke-width="3"/>
    <path d="M-20 435 L1420 338" stroke="#d7e8f0" stroke-width="22"/>
    <path d="M-20 435 L1420 338" stroke="#7794a5" stroke-width="4"/>
    <path d="M-20 466 L1420 370" stroke="#6f8795" stroke-width="16"/>
  </g>
  <g stroke="#e8f3f9" stroke-width="7" fill="none">
    <path d="M350 455V158"/>
    <path d="M350 158 C388 220 404 320 404 455"/>
    <path d="M1030 382V30"/>
    <path d="M1132 374V20"/>
    <path d="M1030 30 C1080 110 1110 230 1132 374"/>
  </g>
  <g stroke="#d7e8f0" stroke-width="3" opacity="0.9">
    <path d="M30 432V448"/>
    <path d="M95 428V446"/>
    <path d="M160 423V442"/>
    <path d="M225 418V438"/>
    <path d="M290 414V434"/>
    <path d="M355 409V430"/>
    <path d="M420 405V426"/>
    <path d="M485 400V422"/>
    <path d="M550 396V418"/>
    <path d="M615 392V414"/>
    <path d="M680 387V410"/>
    <path d="M745 383V406"/>
    <path d="M810 379V402"/>
    <path d="M875 374V398"/>
    <path d="M940 370V394"/>
    <path d="M1005 366V390"/>
    <path d="M1070 361V386"/>
    <path d="M1135 357V382"/>
    <path d="M1200 352V378"/>
    <path d="M1265 348V374"/>
    <path d="M1330 344V370"/>
  </g>
  <g opacity="0.46" stroke="#385a6b" stroke-width="5">
    <path d="M50 456 L95 500"/>
    <path d="M120 452 L165 496"/>
    <path d="M190 447 L235 491"/>
    <path d="M260 442 L305 486"/>
    <path d="M330 438 L375 482"/>
    <path d="M400 433 L445 477"/>
    <path d="M470 428 L515 472"/>
    <path d="M540 424 L585 468"/>
    <path d="M610 419 L655 463"/>
    <path d="M680 414 L725 458"/>
    <path d="M750 410 L795 454"/>
    <path d="M820 405 L865 449"/>
    <path d="M890 400 L935 444"/>
    <path d="M960 396 L1005 440"/>
    <path d="M1030 391 L1075 435"/>
    <path d="M1100 386 L1145 430"/>
    <path d="M1170 382 L1215 426"/>
    <path d="M1240 377 L1285 421"/>
  </g>
  <g fill="#dcebf2" opacity="0.95">
    <rect x="323" y="455" width="54" height="86"/>
    <rect x="1001" y="382" width="58" height="150"/>
    <rect x="1104" y="374" width="58" height="158"/>
  </g>
  <rect y="542" width="1400" height="218" fill="#0f4d5e" opacity="0.28"/>
  <path d="M0 570 C170 555 310 572 470 558 C650 542 760 564 930 548 C1110 530 1260 542 1400 526" stroke="#b9d9e2" stroke-width="5" opacity="0.32" filter="url(#soft)"/>
</svg>
