<svg xmlns="http://www.w3.org/2000/svg" viewBox="0 0 120 120" role="img" aria-label="Face authentication device">
  <defs>
    <linearGradient id="case" x1="0" y1="0" x2="1" y2="1">
      <stop offset="0" stop-color="#18232d"/>
      <stop offset="1" stop-color="#0c1116"/>
    </linearGradient>
  </defs>
  <rect x="9" y="9" width="102" height="102" rx="18" fill="url(#case)" stroke="#9cc8d8" stroke-width="5"/>
  <g fill="none" stroke-linecap="round" stroke-linejoin="round">
    <path d="M34 28H24V40" stroke="#7ed8ff" stroke-width="6"/>
    <path d="M86 28H96V40" stroke="#7ed8ff" stroke-width="6"/>
    <path d="M34 92H24V80" stroke="#7ed8ff" stroke-width="6"/>
    <path d="M86 92H96V80" stroke="#7ed8ff" stroke-width="6"/>
    <path d="M60 36C47 36 39 46 39 60C39 75 48 86 60 86C72 86 81 75 81 60C81 46 73 36 60 36Z" stroke="#d8f5ff" stroke-width="4"/>
    <path d="M52 56V56.1" stroke="#d8f5ff" stroke-width="7"/>
    <path d="M68 56V56.1" stroke="#d8f5ff" stroke-width="7"/>
    <path d="M53 71C57 74 63 74 67 71" stroke="#d8f5ff" stroke-width="4"/>
  </g>
</svg>
