<svg xmlns="http://www.w3.org/2000/svg" viewBox="0 0 1400 760" role="img" aria-label="Suwon Hwaseong fortress park and city illustration">
  <defs>
    <linearGradient id="sky" x1="0" y1="0" x2="0" y2="1">
      <stop offset="0" stop-color="#f0eee7"/>
      <stop offset="0.55" stop-color="#d8dfd2"/>
      <stop offset="1" stop-color="#a7bf72"/>
    </linearGradient>
    <linearGradient id="grass" x1="0" y1="0" x2="0" y2="1">
      <stop offset="0" stop-color="#bcd869"/>
      <stop offset="1" stop-color="#5f8e2d"/>
    </linearGradient>
    <linearGradient id="stone" x1="0" y1="0" x2="1" y2="1">
      <stop offset="0" stop-color="#c9c2ae"/>
      <stop offset="1" stop-color="#5f6258"/>
    </linearGradient>
  </defs>
  <rect width="1400" height="760" fill="url(#sky)"/>
  <g opacity="0.52" fill="#8b97a0">
    <rect x="40" y="300" width="70" height="120"/>
    <rect x="128" y="278" width="92" height="142"/>
    <rect x="250" y="310" width="58" height="110"/>
    <rect x="340" y="286" width="76" height="134"/>
    <rect x="458" y="236" width="90" height="184"/>
    <rect x="568" y="210" width="72" height="210"/>
    <rect x="660" y="176" width="88" height="244"/>
    <rect x="770" y="300" width="58" height="120"/>
    <rect x="860" y="260" width="82" height="160"/>
    <rect x="980" y="292" width="70" height="128"/>
    <rect x="1090" y="245" width="86" height="175"/>
    <rect x="1210" y="270" width="74" height="150"/>
    <rect x="1320" y="305" width="58" height="115"/>
  </g>
  <rect y="420" width="1400" height="340" fill="url(#grass)"/>
  <path d="M840 480 C1000 438 1135 458 1280 420 C1340 405 1378 402 1400 400 L1400 760 L880 760 C835 662 790 555 840 480Z" fill="#6fa15d" opacity="0.92"/>
  <path d="M915 530 C1048 495 1168 512 1308 468 C1352 454 1380 450 1400 448 L1400 662 C1282 650 1150 618 1018 650 C930 672 880 625 915 530Z" fill="#7aa083"/>
  <path d="M930 544 C1050 515 1182 528 1320 484" fill="none" stroke="#527a6c" stroke-width="24" opacity="0.36"/>
  <g fill="#5b842f">
    <ellipse cx="1020" cy="470" rx="82" ry="96"/>
    <ellipse cx="1130" cy="470" rx="92" ry="105"/>
    <ellipse cx="1260" cy="505" rx="105" ry="118"/>
    <ellipse cx="1320" cy="440" rx="76" ry="90"/>
  </g>
  <path d="M0 632 C155 560 255 540 372 510 C505 476 630 444 760 405 C852 378 952 362 1080 330" fill="none" stroke="url(#stone)" stroke-width="82" stroke-linecap="round"/>
  <path d="M0 632 C155 560 255 540 372 510 C505 476 630 444 760 405 C852 378 952 362 1080 330" fill="none" stroke="#3e413d" stroke-width="8" opacity="0.52"/>
  <g fill="#807a6c" opacity="0.82">
    <rect x="40" y="574" width="36" height="28"/>
    <rect x="115" y="540" width="36" height="28"/>
    <rect x="192" y="514" width="36" height="28"/>
    <rect x="270" y="492" width="36" height="28"/>
    <rect x="350" y="470" width="36" height="28"/>
    <rect x="432" y="446" width="36" height="28"/>
    <rect x="516" y="420" width="36" height="28"/>
    <rect x="602" y="394" width="36" height="28"/>
    <rect x="688" y="368" width="36" height="28"/>
    <rect x="774" y="344" width="36" height="28"/>
    <rect x="860" y="324" width="36" height="28"/>
    <rect x="946" y="304" width="36" height="28"/>
  </g>
  <g transform="translate(610 290)">
    <rect x="-72" y="82" width="144" height="26" fill="#7b423a"/>
    <rect x="-56" y="42" width="112" height="44" fill="#f1dfbf" stroke="#73413c" stroke-width="7"/>
    <path d="M-86 42 L0 -10 L86 42 Z" fill="#2a2d2d"/>
    <path d="M-70 33 L0 -5 L70 33" fill="none" stroke="#f3ead8" stroke-width="8"/>
    <path d="M-50 42 L-50 86M0 42 L0 86M50 42 L50 86" stroke="#743c37" stroke-width="8"/>
    <path d="M-94 48 L-80 32 L-66 48M66 48 L80 32 L94 48" fill="#2a2d2d"/>
  </g>
  <path d="M180 705 C300 660 410 680 520 650 C620 622 720 640 830 604 C940 568 1070 604 1210 552" fill="none" stroke="#e6ddc0" stroke-width="12" opacity="0.45"/>
  <g fill="#476f28">
    <ellipse cx="110" cy="700" rx="72" ry="60"/>
    <ellipse cx="275" cy="692" rx="88" ry="70"/>
    <ellipse cx="480" cy="676" rx="64" ry="58"/>
    <ellipse cx="720" cy="666" rx="92" ry="74"/>
    <ellipse cx="1160" cy="688" rx="100" ry="75"/>
  </g>
  <g stroke="#354b29" stroke-width="5" opacity="0.6">
    <path d="M1160 688 C1176 640 1196 600 1226 565"/>
    <path d="M1198 600 C1234 595 1266 580 1294 548"/>
    <path d="M275 692 C292 650 318 620 352 592"/>
  </g>
</svg>
