<svg xmlns="http://www.w3.org/2000/svg" viewBox="0 0 1400 760" role="img" aria-label="Sydney park axis and skyline illustration">
  <defs>
    <linearGradient id="sky" x1="0" y1="0" x2="0" y2="1">
      <stop offset="0" stop-color="#d6dde3"/>
      <stop offset="0.55" stop-color="#eef0ee"/>
      <stop offset="1" stop-color="#a8b8aa"/>
    </linearGradient>
    <linearGradient id="tower" x1="0" y1="0" x2="0" y2="1">
      <stop offset="0" stop-color="#dce8ec"/>
      <stop offset="1" stop-color="#667b87"/>
    </linearGradient>
    <linearGradient id="tree" x1="0" y1="0" x2="0" y2="1">
      <stop offset="0" stop-color="#b9b65d"/>
      <stop offset="1" stop-color="#244327"/>
    </linearGradient>
  </defs>
  <rect width="1400" height="760" fill="url(#sky)"/>
  <g fill="#c5cbd2" opacity="0.55">
    <ellipse cx="240" cy="92" rx="180" ry="42"/>
    <ellipse cx="650" cy="76" rx="235" ry="48"/>
    <ellipse cx="1080" cy="110" rx="260" ry="54"/>
  </g>
  <g opacity="0.82">
    <rect x="20" y="260" width="88" height="210" fill="url(#tower)"/>
    <rect x="126" y="285" width="66" height="185" fill="url(#tower)"/>
    <rect x="214" y="235" width="78" height="235" fill="url(#tower)"/>
    <rect x="324" y="210" width="40" height="260" fill="url(#tower)"/>
    <path d="M395 470V210L422 252V470Z" fill="url(#tower)"/>
    <rect x="455" y="180" width="72" height="290" fill="url(#tower)"/>
    <rect x="552" y="245" width="58" height="225" fill="url(#tower)"/>
    <rect x="642" y="300" width="46" height="170" fill="url(#tower)"/>
    <path d="M712 470V298L736 248L760 298V470Z" fill="#b87f6e" opacity="0.88"/>
    <rect x="790" y="255" width="76" height="215" fill="url(#tower)"/>
    <rect x="898" y="235" width="54" height="235" fill="url(#tower)"/>
    <path d="M982 470V270C1030 298 1040 354 1040 470Z" fill="url(#tower)"/>
    <rect x="1072" y="190" width="90" height="280" fill="url(#tower)"/>
    <rect x="1192" y="130" width="86" height="340" fill="url(#tower)"/>
    <rect x="1308" y="150" width="72" height="320" fill="url(#tower)"/>
  </g>
  <g stroke="#81919c" stroke-width="3" opacity="0.65">
    <path d="M344 210L344 116"/>
    <path d="M491 180L491 108"/>
    <path d="M1235 130L1235 55"/>
    <path d="M1345 150L1345 70"/>
  </g>
  <g fill="#6b7c85" opacity="0.36">
    <path d="M430 470V295L460 430H400Z"/>
    <path d="M388 470V305L420 438H356Z"/>
  </g>
  <rect y="470" width="1400" height="290" fill="#6c8f56"/>
  <g fill="url(#tree)">
    <ellipse cx="55" cy="508" rx="58" ry="74"/>
    <ellipse cx="150" cy="512" rx="68" ry="84"/>
    <ellipse cx="250" cy="528" rx="78" ry="92"/>
    <ellipse cx="1135" cy="520" rx="78" ry="96"/>
    <ellipse cx="1238" cy="510" rx="70" ry="84"/>
    <ellipse cx="1335" cy="522" rx="64" ry="82"/>
  </g>
  <g fill="#14301d">
    <path d="M310 700 L350 490 L390 700Z"/>
    <path d="M442 700 L482 470 L522 700Z"/>
    <path d="M560 700 L600 500 L640 700Z"/>
    <path d="M760 700 L800 500 L840 700Z"/>
    <path d="M878 700 L918 470 L958 700Z"/>
    <path d="M1010 700 L1050 490 L1090 700Z"/>
  </g>
  <path d="M530 760 L660 470 L740 470 L870 760Z" fill="#d9d5cc"/>
  <path d="M585 760 L678 470" stroke="#eeeae2" stroke-width="10" opacity="0.65"/>
  <path d="M815 760 L722 470" stroke="#eeeae2" stroke-width="10" opacity="0.65"/>
  <g fill="#253042" opacity="0.7">
    <circle cx="690" cy="650" r="4"/>
    <path d="M690 654L686 672H694Z"/>
    <circle cx="735" cy="610" r="3"/>
    <path d="M735 613L731 628H739Z"/>
    <circle cx="660" cy="584" r="3"/>
    <path d="M660 587L656 602H664Z"/>
    <circle cx="760" cy="555" r="3"/>
    <path d="M760 558L756 572H764Z"/>
    <circle cx="625" cy="535" r="2.5"/>
    <path d="M625 538L622 550H628Z"/>
  </g>
  <path d="M0 710 C190 690 290 720 460 685 C580 660 660 682 760 655 C940 606 1110 645 1400 598 L1400 760 L0 760Z" fill="#315b35" opacity="0.34"/>
</svg>
